<svg width="40" height="40" viewBox="0 0 40 40" fill="none" xmlns="http://www.w3.org/2000/svg">
<circle cx="20" cy="20" r="20" fill="white"/>
<path d="M13.2788 25.2788C12.8804 25.6771 12.8804 26.3229 13.2788 26.7212C13.6771 27.1196 14.3229 27.1196 14.7212 26.7212L14 26L13.2788 25.2788ZM27.0408 13.9792C27.0408 13.4159 26.5841 12.9592 26.0208 12.9592L16.8408 12.9592C16.2775 12.9592 15.8208 13.4159 15.8208 13.9792C15.8208 14.5425 16.2775 14.9992 16.8408 14.9992L25.0008 14.9992L25.0008 23.1592C25.0008 23.7225 25.4575 24.1792 26.0208 24.1792C26.5841 24.1792 27.0408 23.7225 27.0408 23.1592L27.0408 13.9792ZM14 26L14.7212 26.7212L26.7421 14.7004L26.0208 13.9792L25.2996 13.2579L13.2788 25.2788L14 26Z" fill="black"/>
</svg>
