<svg width="41" height="41" viewBox="0 0 41 41" fill="none" xmlns="http://www.w3.org/2000/svg">
<g filter="url(#filter0_d_2780_125)">
<circle cx="18.4729" cy="18.5561" r="15.1665" fill="white"/>
<path d="M13.3754 22.5587C13.0731 22.8609 13.0731 23.351 13.3754 23.6532C13.6776 23.9554 14.1676 23.9554 14.4699 23.6532L13.9226 23.106L13.3754 22.5587ZM23.8122 13.9903C23.8122 13.5629 23.4657 13.2164 23.0383 13.2164L16.073 13.2164C15.6455 13.2164 15.299 13.5629 15.299 13.9903C15.299 14.4177 15.6455 14.7642 16.073 14.7642H22.2643V20.9556C22.2643 21.383 22.6108 21.7295 23.0383 21.7295C23.4657 21.7295 23.8122 21.383 23.8122 20.9556L23.8122 13.9903ZM13.9226 23.106L14.4699 23.6532L23.5855 14.5375L23.0383 13.9903L22.491 13.443L13.3754 22.5587L13.9226 23.106Z" fill="black"/>
</g>
<defs>
<filter id="filter0_d_2780_125" x="0.210703" y="0.293955" width="40.652" height="40.652" filterUnits="userSpaceOnUse" color-interpolation-filters="sRGB">
<feFlood flood-opacity="0" result="BackgroundImageFix"/>
<feColorMatrix in="SourceAlpha" type="matrix" values="0 0 0 0 0 0 0 0 0 0 0 0 0 0 0 0 0 0 127 0" result="hardAlpha"/>
<feOffset dx="2.0638" dy="2.0638"/>
<feGaussianBlur stdDeviation="2.57974"/>
<feComposite in2="hardAlpha" operator="out"/>
<feColorMatrix type="matrix" values="0 0 0 0 0 0 0 0 0 0 0 0 0 0 0 0 0 0 0.2 0"/>
<feBlend mode="normal" in2="BackgroundImageFix" result="effect1_dropShadow_2780_125"/>
<feBlend mode="normal" in="SourceGraphic" in2="effect1_dropShadow_2780_125" result="shape"/>
</filter>
</defs>
</svg>
